<?xml version="1.0" encoding="UTF-8" standalone="no"?>
<!-- Created with Inkscape (http://www.inkscape.org/) -->

<svg
   width="1024"
   height="620"
   viewBox="0 0 270.93334 164.04167"
   version="1.1"
   id="svg8"
   inkscape:version="1.1.1 (1:1.1+202109281943+c3084ef5ed)"
   sodipodi:docname="index_secured_full_disk_encryption.svg"
   xmlns:inkscape="http://www.inkscape.org/namespaces/inkscape"
   xmlns:sodipodi="http://sodipodi.sourceforge.net/DTD/sodipodi-0.dtd"
   xmlns="http://www.w3.org/2000/svg"
   xmlns:svg="http://www.w3.org/2000/svg"
   xmlns:rdf="http://www.w3.org/1999/02/22-rdf-syntax-ns#"
   xmlns:cc="http://creativecommons.org/ns#"
   xmlns:dc="http://purl.org/dc/elements/1.1/">
  <defs
     id="defs2" />
  <sodipodi:namedview
     id="base"
     pagecolor="#ffffff"
     bordercolor="#666666"
     borderopacity="1.0"
     inkscape:pageopacity="0.0"
     inkscape:pageshadow="2"
     inkscape:zoom="0.7"
     inkscape:cx="527.14286"
     inkscape:cy="341.42857"
     inkscape:document-units="px"
     inkscape:current-layer="layer1"
     showgrid="false"
     inkscape:window-width="1608"
     inkscape:window-height="881"
     inkscape:window-x="72"
     inkscape:window-y="27"
     inkscape:window-maximized="1"
     units="px"
     inkscape:showpageshadow="false"
     borderlayer="false"
     inkscape:pagecheckerboard="false"
     showguides="true"
     inkscape:guide-bbox="true">
    <sodipodi:guide
       position="-32.127977,137.58334"
       orientation="0,-1"
       id="guide31673" />
  </sodipodi:namedview>
  <metadata
     id="metadata5">
    <rdf:RDF>
      <cc:Work
         rdf:about="">
        <dc:format>image/svg+xml</dc:format>
        <dc:type
           rdf:resource="http://purl.org/dc/dcmitype/StillImage" />
        <dc:title />
      </cc:Work>
    </rdf:RDF>
  </metadata>
  <g
     inkscape:label="Layer 1"
     inkscape:groupmode="layer"
     id="layer1"
     transform="translate(0,-132.95834)">
    <path
       id="path31148"
       style="opacity:1;fill:#008000;stroke:#00ff00;stroke-width:0"
       d="m 139.43704,140.78864 c -0.95935,-2.3e-4 -1.91869,0.29571 -2.73371,0.88791 -25.174,18.28166 -61.303578,21.99039 -61.662708,22.0252 -2.385049,0.23027 -4.20467,2.23525 -4.20467,4.63099 0,0.99969 0.09269,24.79329 8.193583,51.50243 4.802196,15.83519 11.442846,29.38371 19.736332,40.26973 10.534333,13.82696 23.740253,23.3574 39.251673,28.32614 0.46149,0.1479 0.94081,0.22212 1.4195,0.22212 0.47867,0 0.95743,-0.074 1.4189,-0.22155 15.51142,-4.96873 28.71725,-14.49916 39.2511,-28.32613 8.29348,-10.886 14.93368,-24.43451 19.73633,-40.26974 8.10045,-26.70958 8.19359,-50.50331 8.19359,-51.503 0,-2.39388 -1.81917,-4.39782 -4.20236,-4.63042 -0.36191,-0.0353 -36.49687,-3.74458 -61.66386,-22.02577 -0.81502,-0.59173 -1.77436,-0.88767 -2.7337,-0.88791 z m 14.79587,18.62803 c 1.43747,0.67266 2.8764,1.31333 4.31226,1.92332 -1.43586,-0.60999 -2.87479,-1.25066 -4.31226,-1.92332 z m -33.90633,1.92274 c -1.43577,0.60997 -2.86795,1.18919 -4.29143,1.73936 -1.42349,0.55019 -2.83827,1.07142 -4.2388,1.56468 1.40053,-0.49324 2.81531,-1.0145 4.2388,-1.56468 1.42349,-0.55017 2.85566,-1.1294 4.29143,-1.73936 z m -14.71894,5.3413 c -10.769257,3.30579 -20.123127,4.97254 -25.334463,5.73291 5.211339,-0.76037 14.56515,-2.42719 25.334463,-5.73291 z m 67.65822,5.8e-4 c 1.3463,0.41321 2.67077,0.80097 3.96749,1.1644 -1.29672,-0.36344 -2.62119,-0.75119 -3.96749,-1.1644 z m 11.37558,3.0663 c 5.82816,1.3622 10.70366,2.19138 13.9606,2.6666 -3.25694,-0.47522 -8.13244,-1.30435 -13.9606,-2.6666 z M 81.06101,182.43911 c 0.165058,1.56842 0.362283,3.24715 0.591742,5.00581 -0.229501,-1.75884 -0.426657,-3.43723 -0.591742,-5.00581 z m 2.030319,14.3366 c 0.37974,2.12563 0.808531,4.32225 1.292232,6.57223 -0.483711,-2.24997 -0.91248,-4.4466 -1.292232,-6.57223 z m 8.200526,30.22862 c 0.512509,1.35203 1.040359,2.67958 1.582027,3.98371 -0.541672,-1.30413 -1.069518,-2.63168 -1.582027,-3.98371 z m 18.724055,32.25027 c 1.10185,1.24177 2.2319,2.4359 3.38907,3.58228 -1.15728,-1.14648 -2.28712,-2.34039 -3.38907,-3.58228 z" />
    <g
       id="XMLID_486_"
       transform="matrix(0.25024477,0,0,0.25024477,98.146063,172.37217)"
       style="fill:#ffffff">
      <path
         id="XMLID_487_"
         d="m 165,330 c 63.411,0 115,-51.589 115,-115 0,-29.771 -11.373,-56.936 -30,-77.379 V 85 C 250,38.131 211.869,0 165,0 118.131,0 80.001,38.131 80.001,85 v 52.619 C 61.373,158.064 50,185.229 50,215 c 0,63.411 51.589,115 115,115 z M 180,219.986 V 240 c 0,8.284 -6.716,15 -15,15 -8.284,0 -15,-6.716 -15,-15 v -20.014 c -6.068,-4.565 -10,-11.824 -10,-19.986 0,-13.785 11.215,-25 25,-25 13.785,0 25,11.215 25,25 0,8.162 -3.932,15.421 -10,19.986 z M 110.001,85 c 0,-30.327 24.673,-55 54.999,-55 30.327,0 55,24.673 55,55 v 29.029 C 203.652,105.088 184.91,100 165,100 c -19.909,0 -38.651,5.088 -54.999,14.028 z"
         style="fill:#ffffff" />
    </g>
  </g>
</svg>
